<svg xmlns="http://www.w3.org/2000/svg" xmlns:xlink="http://www.w3.org/1999/xlink" version="1.1" width="256" height="256" viewBox="0 0 256 256" xml:space="preserve">

<defs>
</defs>
<g style="stroke: none; stroke-width: 0; stroke-dasharray: none; stroke-linecap: butt; stroke-linejoin: miter; stroke-miterlimit: 10; fill: none; fill-rule: nonzero; opacity: 1;" transform="translate(1.4065934065934016 1.4065934065934016) scale(2.81 2.81)" >
	<path d="M 45 89.999 c -0.776 0 -1.551 -0.123 -2.29 -0.368 c -19.604 -6.512 -32.272 -22.013 -32.272 -39.492 V 17.612 c 0 -2.276 1.619 -4.223 3.85 -4.628 h 0 c 10.74 -1.954 20.111 -5.993 27.853 -12.005 c 1.684 -1.307 4.035 -1.307 5.719 0 c 7.742 6.013 17.113 10.052 27.853 12.005 c 2.23 0.405 3.85 2.352 3.85 4.628 v 32.527 c 0 17.479 -12.667 32.981 -32.271 39.492 C 46.552 89.876 45.776 89.999 45 89.999 z M 45 1.999 c -0.576 0 -1.152 0.187 -1.633 0.56 C 35.369 8.77 25.706 12.939 14.646 14.952 c 0 0 0 0 0 0 c -1.279 0.232 -2.208 1.351 -2.208 2.66 v 32.527 c 0 16.603 12.13 31.359 30.903 37.594 c 1.069 0.355 2.248 0.355 3.318 0 c 18.772 -6.234 30.902 -20.991 30.902 -37.594 V 17.612 c 0 -1.309 -0.929 -2.428 -2.207 -2.66 C 64.295 12.939 54.632 8.77 46.633 2.559 C 46.152 2.185 45.576 1.999 45 1.999 z M 14.467 13.968 h 0.01 H 14.467 z" style="stroke: none; stroke-width: 1; stroke-dasharray: none; stroke-linecap: butt; stroke-linejoin: miter; stroke-miterlimit: 10; fill: rgb(0,0,0); fill-rule: nonzero; opacity: 1;" transform=" matrix(1 0 0 1 0 0) " stroke-linecap="round" />
	<path d="M 45 65.5 c -11.855 0 -21.5 -9.645 -21.5 -21.5 c 0 -11.855 9.645 -21.5 21.5 -21.5 c 11.855 0 21.5 9.645 21.5 21.5 C 66.5 55.855 56.855 65.5 45 65.5 z M 45 24.5 c -10.752 0 -19.5 8.748 -19.5 19.5 c 0 10.752 8.748 19.5 19.5 19.5 c 10.752 0 19.5 -8.748 19.5 -19.5 C 64.5 33.248 55.752 24.5 45 24.5 z" style="stroke: none; stroke-width: 1; stroke-dasharray: none; stroke-linecap: butt; stroke-linejoin: miter; stroke-miterlimit: 10; fill: rgb(0,0,0); fill-rule: nonzero; opacity: 1;" transform=" matrix(1 0 0 1 0 0) " stroke-linecap="round" />
	<path d="M 46.591 57.444 h -3.182 c -1.641 0 -2.976 -1.335 -2.976 -2.977 v -5.901 h -5.901 c -1.641 0 -2.976 -1.335 -2.976 -2.976 v -3.182 c 0 -1.641 1.335 -2.976 2.976 -2.976 h 5.901 v -5.901 c 0 -1.641 1.335 -2.976 2.976 -2.976 h 3.182 c 1.641 0 2.976 1.335 2.976 2.976 v 5.901 h 5.901 c 1.642 0 2.977 1.335 2.977 2.976 v 3.182 c 0 1.641 -1.335 2.976 -2.977 2.976 h -5.901 v 5.901 C 49.566 56.109 48.231 57.444 46.591 57.444 z M 34.532 41.434 c -0.538 0 -0.976 0.438 -0.976 0.976 v 3.182 c 0 0.538 0.438 0.976 0.976 0.976 h 6.901 c 0.552 0 1 0.447 1 1 v 6.901 c 0 0.538 0.438 0.977 0.976 0.977 h 3.182 c 0.538 0 0.976 -0.438 0.976 -0.977 v -6.901 c 0 -0.553 0.447 -1 1 -1 h 6.901 c 0.538 0 0.977 -0.438 0.977 -0.976 v -3.182 c 0 -0.538 -0.438 -0.976 -0.977 -0.976 h -6.901 c -0.553 0 -1 -0.448 -1 -1 v -6.901 c 0 -0.538 -0.438 -0.976 -0.976 -0.976 h -3.182 c -0.538 0 -0.976 0.438 -0.976 0.976 v 6.901 c 0 0.552 -0.448 1 -1 1 H 34.532 z" style="stroke: none; stroke-width: 1; stroke-dasharray: none; stroke-linecap: butt; stroke-linejoin: miter; stroke-miterlimit: 10; fill: rgb(0,0,0); fill-rule: nonzero; opacity: 1;" transform=" matrix(1 0 0 1 0 0) " stroke-linecap="round" />
</g>
</svg>