<?xml version="1.0" encoding="UTF-8" standalone="no"?>
<!-- Created with Inkscape (http://www.inkscape.org/) -->

<svg
   width="155.77161mm"
   height="155.80855mm"
   viewBox="0 0 155.77161 155.80855"
   version="1.1"
   id="svg5"
   xml:space="preserve"
   inkscape:version="1.2 (dc2aedaf03, 2022-05-15)"
   sodipodi:docname="cinemalogo.svg"
   xmlns:inkscape="http://www.inkscape.org/namespaces/inkscape"
   xmlns:sodipodi="http://sodipodi.sourceforge.net/DTD/sodipodi-0.dtd"
   xmlns="http://www.w3.org/2000/svg"
   xmlns:svg="http://www.w3.org/2000/svg"><sodipodi:namedview
     id="namedview7"
     pagecolor="#ffffff"
     bordercolor="#000000"
     borderopacity="0.25"
     inkscape:showpageshadow="2"
     inkscape:pageopacity="0.0"
     inkscape:pagecheckerboard="0"
     inkscape:deskcolor="#d1d1d1"
     inkscape:document-units="mm"
     showgrid="false"
     inkscape:zoom="1.2938725"
     inkscape:cx="248.47889"
     inkscape:cy="253.88901"
     inkscape:window-width="2560"
     inkscape:window-height="1361"
     inkscape:window-x="-9"
     inkscape:window-y="-9"
     inkscape:window-maximized="1"
     inkscape:current-layer="layer1" /><defs
     id="defs2" /><g
     inkscape:label="Layer 1"
     inkscape:groupmode="layer"
     id="layer1"
     transform="translate(-1.0777938,-0.91703679)">
     <path
       style="fill:hsla(195, 100%, 88%, 0.38);stroke-width:0.264583;image-rendering:auto"
       d="m 72.883,156.59449 c -0.3638,-0.12147 -1.28067,-0.23271 -2.03749,-0.24722 -0.756826,-0.0145 -1.947451,-0.13325 -2.645837,-0.26387 -0.698386,-0.13063 -2.103231,-0.38084 -3.121877,-0.55603 -7.883969,-1.35588 -16.511573,-4.43105 -23.79479,-8.48126 -6.596218,-3.66817 -11.732701,-7.5743 -17.360551,-13.20216 -7.16654,-7.16653 -12.17049,-14.38689 -16.2109803,-23.39131 -1.32283,-2.94799 -3.15632,-7.89785 -3.63986,-9.82653 -0.10945,-0.43656 -0.37779,-1.448586 -0.5963,-2.248956 -1.66272,-6.0901 -2.39682,-12.08509 -2.39752,-19.57916 -6.3e-4,-6.691688 0.32603,-10.046906 1.55845,-16.007306 C 5.0518347,51.10813 10.426825,39.731645 18.074525,30.114653 20.645035,26.882233 27.057985,20.46999 30.285085,17.90543 42.040974,8.5631128 55.533506,2.9823198 70.634046,1.2162598 c 3.394324,-0.396979 13.242084,-0.399501 16.668748,-0.0043 13.255656,1.528906 25.504546,6.116589 36.115626,13.5266912 7.20037,5.028287 14.58101,12.408927 19.6093,19.609304 7.3988,10.594887 12.00012,22.880183 13.52669,36.115621 0.39524,3.42668 0.39271,13.274428 -0.004,16.668758 -1.76606,15.100536 -7.34685,28.593066 -16.68917,40.348956 -2.56456,3.22711 -8.9768,9.64005 -12.20922,12.21056 -5.15457,4.09906 -11.00916,7.66196 -17.02867,10.36305 -2.94799,1.32283 -7.89785,3.15632 -9.82654,3.63986 -0.43656,0.10945 -1.448586,0.37697 -2.248946,0.59449 -2.86704,0.77918 -8.05241,1.71735 -12.03854,2.17808 -2.255334,0.26068 -12.927814,0.36025 -13.626054,0.12713 z m 16.271884,-7.91797 c 16.135786,-2.4375 29.745076,-9.58604 41.680496,-21.89347 1.53271,-1.58048 3.14856,-3.40939 3.59078,-4.06423 0.44221,-0.65485 1.69893,-2.50032 2.7927,-4.10105 6.32059,-9.25016 9.97659,-18.664836 11.76439,-30.294786 0.65811,-4.28106 0.65811,-14.768928 0,-19.049996 -1.5797,-10.27622 -4.68584,-18.935743 -9.82269,-27.384377 -5.07195,-8.341873 -12.78302,-16.365384 -20.90152,-21.748386 -9.17119,-6.081 -18.433596,-9.615074 -29.765616,-11.3570762 -4.281074,-0.658102 -14.768934,-0.658102 -19.050003,0 C 51.747007,11.503512 36.758933,19.652519 25.586395,32.628195 11.818805,48.61774 5.9727247,69.238398 9.2715347,90.175074 11.781135,106.10289 20.399225,121.52216 32.700966,132.09443 c 11.513928,9.89521 24.684496,15.50962 40.049744,17.07257 3.67124,0.37344 12.41605,0.11197 16.404174,-0.49048 z M 34.783007,102.61048 V 86.470904 h 13.758332 c 7.567083,0 13.754419,-0.0893 13.749636,-0.19844 -0.0048,-0.10914 -0.517689,-1.0914 -1.139791,-2.18281 -1.27186,-2.23133 -0.86754,-2.08719 -4.816223,-1.717 -2.323576,0.21783 -3.163115,-0.0259 -4.251243,-1.23442 -0.81157,-0.90133 -1.081585,-1.90107 -1.974143,-7.309308 -0.440926,-2.67169 -0.90586,-5.131618 -1.033188,-5.466518 l -0.231502,-0.60889 -2.152174,0.43021 c -2.052058,0.41019 -2.205815,0.49169 -3.305378,1.751918 -0.881507,1.01031 -1.191482,1.22462 -1.315651,0.90964 -0.308354,-0.78222 -1.388737,-7.675378 -1.219388,-7.780048 0.09339,-0.0577 0.752922,0.258 1.465619,0.7016 1.213996,0.75561 1.405438,0.79538 3.032017,0.62991 2.616427,-0.26616 2.926826,-0.38294 2.926826,-1.10111 0,-0.49038 -0.298146,-0.77941 -1.358051,-1.3165 -2.785374,-1.41146 -5.165873,-4.28105 -5.904806,-7.118 -1.714257,-6.581478 2.194501,-12.753939 8.966842,-14.159871 1.806548,-0.375037 3.234499,-0.232762 5.729777,0.570896 l 1.767284,0.569193 3.13854,-0.987427 c 1.726195,-0.543087 4.054702,-1.284185 5.174461,-1.646886 l 2.035924,-0.659458 0.997471,-2.033654 c 1.689153,-3.44385 4.924162,-6.137915 8.483642,-7.065041 1.93108,-0.502983 5.35883,-0.502983 7.28991,0 6.460354,1.682705 10.654564,8.220794 9.695784,15.114142 -0.27215,1.956734 -0.26284,2.024909 0.33339,2.44067 2.03606,1.419757 2.32805,1.903685 2.90026,4.806783 0.30117,1.527973 0.59019,2.823483 0.64226,2.878933 0.1398,0.14883 4.928426,-0.79515 5.487636,-1.08179 0.2636,-0.13512 1.72681,-1.13373 3.25158,-2.219143 5.31874,-3.786174 9.42203,-6.48259 9.71586,-6.384644 0.37841,0.126135 0.43196,0.392845 2.29609,11.436857 0.8597,5.09322 1.68761,9.90174 1.83982,10.68559 0.15221,0.78384 0.27674,1.58751 0.27674,1.78593 0,0.593218 -1.41045,0.427778 -4.99082,-0.5854 -1.83896,-0.52039 -4.96103,-1.40458 -6.93793,-1.96487 l -3.59438,-1.01871 -2.71073,0.41804 -2.71074,0.41805 0.21969,1.61297 c 0.12084,0.88714 0.2197,2.469768 0.2197,3.516958 0,1.81304 -0.0437,1.94903 -0.914296,2.846868 -0.95507,0.98491 -1.68455,1.27303 -4.46158,1.76219 -1.92361,0.33883 -1.93167,0.35033 -2.43686,3.48201 -0.1811,1.12262 -0.46185,2.21051 -0.62389,2.41754 -0.27738,0.3544 -2.40808,0.75099 -19.298894,3.5922 -2.448708,0.4119 -4.522379,0.81909 -4.608163,0.90487 -0.08578,0.0858 12.365443,0.15597 27.669377,0.15597 H 123.683 v 16.139576 16.13959 H 79.233 34.783007 Z m 3.968749,14.02292 v -1.32292 H 37.296548 35.84134 v 1.32292 1.32292 h 1.455208 1.455208 z m 3.96875,-0.0145 v -1.33741 l -1.256771,0.0806 c -1.21303,0.0778 -1.259721,0.11145 -1.341559,0.96573 -0.133741,1.39611 0.06592,1.62845 1.399402,1.62845 h 1.198928 z m 4.365625,0.0145 v -1.19063 h -1.455209 -1.455208 l -0.08479,0.88509 c -0.141732,1.47951 0.04766,1.66572 1.603184,1.57624 l 1.392021,-0.0801 z m 4.056824,0.5684 c 0.04844,-0.34222 0.0164,-0.90777 -0.07119,-1.25677 -0.138435,-0.55157 -0.314291,-0.63455 -1.344845,-0.63455 h -1.185585 v 1.33742 1.33741 l 1.256771,-0.0806 c 1.089885,-0.0699 1.268465,-0.16327 1.344845,-0.70287 z m 4.225901,-0.50225 -0.08064,-1.25678 h -1.455209 -1.455208 l -0.08479,0.88509 c -0.139031,1.4513 0.04356,1.62846 1.678482,1.62846 h 1.478007 z m 3.96875,0 -0.08064,-1.25678 H 58.19863 57.140297 l -0.08064,1.25678 -0.08064,1.25677 h 1.219618 1.219618 z m 4.284982,-0.0662 v -1.32292 h -1.322917 -1.322916 v 1.32292 1.32292 h 1.322916 1.322917 z m 4.181684,0.0662 -0.08064,-1.25678 h -1.190625 c -1.156932,0 -1.193024,0.0251 -1.275413,0.88509 -0.134059,1.39942 0.0648,1.62846 1.413899,1.62846 h 1.213424 z m 4.152688,-0.0662 v -1.19063 h -1.322914 c -1.306957,0 -1.323941,0.0107 -1.407705,0.88509 -0.139372,1.45487 0.05896,1.66746 1.471149,1.57692 l 1.25947,-0.0808 z m 4.10104,0 v -1.32292 h -1.19062 -1.19063 v 1.32292 1.32292 h 1.19063 1.19062 z m 4.63021,0 v -1.19063 l -1.52135,-0.0793 -1.52136,-0.0794 v 1.34933 1.34932 l 1.52136,-0.0794 1.52135,-0.0793 z m 3.96875,0 v -1.19063 l -1.25677,-0.0806 -1.25677,-0.0806 v 1.35191 1.35191 l 1.25677,-0.0806 1.25677,-0.0806 z m 4.256984,0.66146 c 0.0913,-0.3638 0.0913,-0.95912 0,-1.32292 -0.14619,-0.58244 -0.30764,-0.66146 -1.3516,-0.66146 h -1.18559 v 1.32292 1.32292 h 1.18559 c 1.04396,0 1.20541,-0.079 1.3516,-0.66146 z m 4.02575,-0.59531 c -0.0805,-1.25393 -0.083,-1.25697 -1.11205,-1.34123 -1.16812,-0.0957 -1.47197,0.1982 -1.47809,1.42942 -0.005,1.06489 0.12868,1.16858 1.50976,1.16858 h 1.16102 z m 4.15269,-0.0662 v -1.19063 h -1.19063 -1.19062 l -0.0813,1.27189 -0.0813,1.27188 1.27188,-0.0813 1.27189,-0.0813 z m 4.256966,0.66146 c 0.0913,-0.3638 0.0913,-0.95912 0,-1.32292 -0.14134,-0.56315 -0.31834,-0.66146 -1.191,-0.66146 -1.102886,0 -1.346176,0.28285 -1.346176,1.56505 0,0.95448 0.15916,1.08079 1.361966,1.08079 0.85582,0 1.03443,-0.10053 1.17521,-0.66146 z m 4.0774,-0.66146 v -1.32292 h -1.16858 c -1.30451,0 -1.39802,0.11937 -1.25646,1.60381 0.0992,1.03984 0.10181,1.04203 1.26221,1.04203 h 1.16283 z m 4.36563,0 v -1.19063 h -1.32292 c -1.30696,0 -1.32394,0.0107 -1.4077,0.88509 -0.13938,1.45487 0.0589,1.66746 1.47115,1.57692 l 1.25947,-0.0808 z m 3.99239,0.66146 c 0.0913,-0.3638 0.0913,-0.95912 0,-1.32292 -0.14619,-0.58244 -0.30764,-0.66146 -1.3516,-0.66146 h -1.18559 v 1.32292 1.32292 h 1.18559 c 1.04396,0 1.20541,-0.079 1.3516,-0.66146 z m 4.34198,-0.67529 v -1.33674 l -1.38906,0.08 c -1.36334,0.0785 -1.39064,0.0964 -1.47385,0.96506 -0.13645,1.42439 0.0555,1.62846 1.53169,1.62846 h 1.33122 z m 3.9171,0.08 -0.0806,-1.25678 h -1.19063 c -1.15693,0 -1.19302,0.0251 -1.27541,0.88509 -0.13406,1.39942 0.0648,1.62846 1.4139,1.62846 h 1.21342 z M 54.816546,103.07261 c 0.03163,-5.930456 -0.01087,-10.960846 -0.09445,-11.178636 -0.130956,-0.34127 -1.445882,-0.39599 -9.516353,-0.39599 h -9.3644 v 11.248136 11.24813 l 9.458853,-0.0695 9.458854,-0.0695 z m 22.236514,-0.26369 -0.069,-11.178636 -9.458858,-0.0695 -9.458854,-0.0695 v 11.248126 11.24814 h 9.52787 9.527872 z m 22.754174,0 -0.069,-11.178636 -9.32656,-0.0695 -9.326564,-0.0695 v 11.248176 11.24818 h 9.395584 9.39558 z m 22.224996,0 -0.069,-11.178636 h -9.39271 -9.39271 l -0.069,11.178636 -0.069,11.17865 h 9.53074 9.53075 z M 38.700107,88.918304 38.619467,87.661534 H 37.29655 35.973633 l -0.08064,1.25677 -0.08064,1.25677 h 1.484201 1.484201 z m 3.96875,0 c -0.06994,-1.08989 -0.163267,-1.26847 -0.702866,-1.34485 -0.342223,-0.0484 -0.907769,-0.0164 -1.256771,0.0712 -0.530931,0.13325 -0.634547,0.32405 -0.634547,1.16846 0,0.55505 0.07937,1.08857 0.17639,1.18558 0.09701,0.097 0.698849,0.17639 1.337413,0.17639 h 1.161023 z m 4.498204,0.009 c 0.07186,-0.99066 0.0092,-1.13372 -0.558702,-1.27626 -0.351798,-0.0883 -1.043058,-0.122 -1.536139,-0.0749 -0.869325,0.083 -0.898969,0.12416 -0.977706,1.35606 l -0.0812,1.27043 1.536409,-0.0798 1.536409,-0.0798 z m 3.887819,-0.0749 v -1.19062 l -1.25677,-0.0806 -1.256771,-0.0806 v 1.35191 1.35191 l 1.256771,-0.0806 1.25677,-0.0806 z m 4.313976,0.0662 c -0.07806,-1.21651 -0.109368,-1.25952 -0.977149,-1.34241 -1.680199,-0.16051 -2.146202,0.10813 -2.146202,1.23721 0,0.55505 0.07937,1.08857 0.17639,1.18558 0.09701,0.097 0.817912,0.17639 1.601997,0.17639 h 1.425606 z m 3.96875,0 -0.08064,-1.25677 H 58.19863 57.140297 l -0.08064,1.25677 -0.08064,1.25677 h 1.219618 1.219618 z m 4.233333,0 -0.08064,-1.25677 h -1.190625 -1.190625 l -0.08064,1.25677 -0.08064,1.25677 h 1.351909 1.35191 z m 4.233333,0 -0.08064,-1.25677 h -1.190625 c -1.156932,0 -1.193024,0.0251 -1.275413,0.88508 -0.134059,1.39942 0.0648,1.62846 1.413899,1.62846 h 1.213424 z m 4.152688,-0.0662 v -1.19062 h -1.322914 c -1.306957,0 -1.323941,0.0107 -1.407705,0.88508 -0.139372,1.45488 0.05896,1.66747 1.471149,1.57692 l 1.25947,-0.0808 z m 4.10104,-0.0152 v -1.33813 l -1.12448,0.0814 -1.12447,0.0814 -0.0807,1.25677 -0.0806,1.25677 h 1.20512 1.20512 z m 4.71085,0.0814 -0.0806,-1.25677 h -1.45521 -1.4552 l -0.0807,1.25677 -0.0806,1.25677 h 1.61649 1.6165 z m 3.88811,-0.0662 v -1.19062 h -1.19062 -1.19063 l -0.0813,1.27188 -0.0813,1.27189 1.27189,-0.0813 1.27188,-0.0813 z m 4.317794,0.15922 c 0.0986,-1.20437 -0.19248,-1.47231 -1.60581,-1.47808 l -0.99219,-0.004 v 1.33742 1.33741 l 1.25677,-0.0806 c 1.25393,-0.0805 1.25697,-0.083 1.34123,-1.11205 z m 3.96494,-0.0931 -0.0807,-1.25677 h -1.19062 c -1.15693,0 -1.19303,0.0251 -1.27541,0.88508 -0.13407,1.39942 0.0648,1.62846 1.4139,1.62846 h 1.21342 z m 4.23333,0 -0.0806,-1.25677 h -1.19063 -1.19062 l -0.0806,1.25677 -0.0806,1.25677 h 1.35191 1.35191 z m 4.236886,0.2473 c 0.10009,-1.04276 -0.31828,-1.63637 -1.15329,-1.63637 -1.143736,0 -1.444446,0.27212 -1.444446,1.30713 0,1.25359 0.14318,1.38087 1.445606,1.28501 0.99702,-0.0734 1.07352,-0.13684 1.15213,-0.95577 z m 3.96519,-0.2473 -0.0806,-1.25677 h -1.05833 c -1.04572,0 -1.06013,0.0134 -1.20892,1.12824 -0.0828,0.62053 -0.0927,1.18607 -0.022,1.25677 0.0707,0.0707 0.651,0.12853 1.28956,0.12853 h 1.16102 l -0.0806,-1.25677 z m 4.41728,-0.0662 v -1.19062 h -1.32292 -1.32292 l -0.0812,1.27112 -0.0812,1.27112 1.40414,-0.0805 1.40415,-0.0805 z m 3.96875,0 v -1.19062 h -1.19063 -1.19062 l -0.0813,1.27188 -0.0813,1.27189 1.27188,-0.0813 1.27189,-0.0813 z m 4.31397,0.0662 c -0.0747,-1.16483 -0.13621,-1.26312 -0.84021,-1.34358 -0.41777,-0.0477 -1.04285,-0.0157 -1.38907,0.0712 -0.52529,0.13184 -0.62949,0.32504 -0.62949,1.16719 0,0.55505 0.0794,1.08857 0.17639,1.18558 0.097,0.097 0.75838,0.17639 1.46971,0.17639 h 1.29331 z m 3.96875,0 -0.0806,-1.25677 h -1.19063 -1.19062 l -0.0806,1.25677 -0.0807,1.25677 h 1.35191 1.35191 z M 47.483006,58.967918 c 0,-0.13811 -0.386953,-0.54627 -0.859896,-0.907 -0.472943,-0.36074 -1.217083,-1.2574 -1.653646,-1.99259 -0.436562,-0.73519 -0.873813,-1.33907 -0.971669,-1.34196 -0.09785,-0.003 -0.309787,0.39432 -0.470961,0.88268 -0.588348,1.78271 0.831054,3.60999 2.804181,3.60999 0.633595,0 1.151991,-0.113 1.151991,-0.25112 z m 12.876389,-6.804436 c -0.09701,-0.09701 -0.255765,-0.09701 -0.35278,0 -0.09701,0.09701 -0.01764,0.176386 0.17639,0.176386 0.194027,0 0.273402,-0.07937 0.17639,-0.176386 z m 6.44757,-0.905867 c 1.668332,-0.3042 3.062599,-0.581515 3.098373,-0.616257 0.03578,-0.03474 -0.355578,-0.887182 -0.869672,-1.894305 -1.284136,-2.515664 -1.904021,-5.626174 -1.549011,-7.772768 0.148215,-0.896188 0.193906,-1.676143 0.101537,-1.733232 -0.09237,-0.05709 -0.81406,0.122449 -1.603753,0.39897 -0.789697,0.276522 -2.864559,0.941713 -4.610809,1.478201 -1.74625,0.536488 -3.219715,1.013748 -3.274367,1.060582 -0.05465,0.04683 0.550497,0.679088 1.344777,1.405014 1.810175,1.6544 3.009577,3.867708 3.432537,6.334212 0.178506,1.040971 0.453369,1.892673 0.610806,1.892673 0.157441,0 1.651252,-0.248891 3.319582,-0.55309 z m -22.92651,-0.968264 c 0.09338,-0.691224 0.46591,-1.774939 0.827836,-2.408256 0.361927,-0.633317 0.658048,-1.198864 0.658048,-1.256771 0,-0.05791 -0.334912,-0.105285 -0.744249,-0.105285 -0.92347,0 -2.093145,1.156237 -2.320705,2.294048 -0.184349,0.921737 0.529185,2.733035 1.07664,2.733035 0.196617,0 0.402071,-0.513922 0.50243,-1.256771 z M 74.53665,49.95028 c 0.83674,-0.161568 1.52135,-0.348486 1.52135,-0.415375 0,-0.06689 -0.39333,-0.466968 -0.87407,-0.889066 -0.48075,-0.422098 -1.21336,-1.400725 -1.62804,-2.17473 -0.41467,-0.774004 -0.79571,-1.457356 -0.84675,-1.518565 -0.2332,-0.279649 -1.44612,1.233704 -1.67751,2.093021 -0.445916,1.656006 0.3602,3.541297 1.41863,3.31779 0.31077,-0.06563 1.24965,-0.25151 2.08639,-0.413075 z M 60.177121,47.214027 c -0.0093,-1.724631 -1.176788,-2.811875 -3.019431,-2.811875 -0.51889,0 -0.943435,0.09106 -0.943435,0.202346 0,0.111289 0.513443,0.699934 1.140981,1.3081 0.627539,0.608163 1.366052,1.523685 1.641139,2.034492 0.635622,1.180277 1.189202,0.836588 1.180746,-0.733063 z m 30.053633,0.0741 c 1.94708,-0.358458 2.23167,-0.587351 2.23043,-1.793888 -0.001,-1.210831 -0.79358,-2.529599 -1.84716,-3.074427 -1.05828,-0.547253 -1.3263,-0.34449 -1.32945,1.005771 -0.001,0.621353 -0.29224,1.731114 -0.66144,2.524199 -0.36238,0.778434 -0.65888,1.463043 -0.65888,1.521354 0,0.172242 0.60001,0.123794 2.2665,-0.183009 z M 50.724151,43.787626 c 1.160767,-0.298016 2.050521,-0.667652 2.050521,-0.851858 0,-0.360667 -1.552207,-1.179449 -2.235938,-1.179449 -1.174909,0 -2.791145,1.429364 -2.791145,2.46843 0,0.376425 0.113456,0.448458 0.463021,0.293965 0.254661,-0.112551 1.385755,-0.441539 2.513541,-0.731088 z m 21.954459,-2.664 c 0.11055,-0.885068 0.48507,-2.048719 0.87172,-2.708486 0.80801,-1.378749 0.72076,-1.398125 -2.08629,-0.463291 l -2.082227,0.693444 0.137025,1.215697 c 0.109177,0.968605 0.333446,1.395698 1.103421,2.101328 1.366741,1.252525 1.818121,1.068425 2.056351,-0.838692 z m 17.338554,-1.814703 c 1.5802,-1.686872 1.29745,-3.978269 -0.64928,-5.261847 -0.91585,-0.603872 -2.22703,-0.629148 -3.414164,-0.06582 -1.10247,0.523158 -1.13759,0.957715 -0.12908,1.597517 0.905744,0.574606 2.256074,2.213536 2.843264,3.450949 0.49139,1.035537 0.61651,1.061429 1.34926,0.279199 z M 72.55227,37.113564 c 1.77146,-0.504647 2.0493,-0.804111 0.99219,-1.069429 -0.84926,-0.213149 -1.88861,0.05172 -2.82813,0.720709 -0.828544,0.589975 -0.995546,1.156401 -0.280722,0.952124 0.254662,-0.07278 1.207162,-0.344308 2.116662,-0.603404 z M 77.671,34.682816 c 0.56819,-0.289552 1.70612,-0.494863 3.08336,-0.556315 2.0906,-0.09328 2.18281,-0.123804 2.18281,-0.7225 0,-0.870056 -1.44996,-2.432749 -2.53531,-2.732426 -1.86679,-0.515448 -3.94688,0.803489 -4.25424,2.697508 -0.164,1.0106 0.004,1.772653 0.3906,1.772653 0.12773,0 0.63748,-0.206512 1.13278,-0.45892 z"
       id="path179" /></g></svg>
