<?xml version="1.0" encoding="UTF-8" standalone="no"?>
<!-- Created with Inkscape (http://www.inkscape.org/) -->

<svg
   width="97.895821mm"
   height="67.99791mm"
   viewBox="0 0 97.895821 67.99791"
   version="1.1"
   id="svg5"
   xml:space="preserve"
   inkscape:version="1.2 (dc2aedaf03, 2022-05-15)"
   sodipodi:docname="dolbylogo.svg"
   xmlns:inkscape="http://www.inkscape.org/namespaces/inkscape"
   xmlns:sodipodi="http://sodipodi.sourceforge.net/DTD/sodipodi-0.dtd"
   xmlns="http://www.w3.org/2000/svg"
   xmlns:svg="http://www.w3.org/2000/svg"
   xmlns:rdf="http://www.w3.org/1999/02/22-rdf-syntax-ns#"
   xmlns:cc="http://creativecommons.org/ns#"
   xmlns:dc="http://purl.org/dc/elements/1.1/"><title
     id="title326">Dolby Logo</title><sodipodi:namedview
     id="namedview7"
     pagecolor="#ffffff"
     bordercolor="#000000"
     borderopacity="0.25"
     inkscape:showpageshadow="2"
     inkscape:pageopacity="0.0"
     inkscape:pagecheckerboard="0"
     inkscape:deskcolor="#d1d1d1"
     inkscape:document-units="mm"
     showgrid="false"
     inkscape:zoom="0.914906"
     inkscape:cx="132.80053"
     inkscape:cy="315.33294"
     inkscape:window-width="2560"
     inkscape:window-height="1361"
     inkscape:window-x="-9"
     inkscape:window-y="-9"
     inkscape:window-maximized="1"
     inkscape:current-layer="layer1" /><defs
     id="defs2">
        <linearGradient id="grad1" x1="0%" y1="0%" x2="100%" y2="0%">
      <stop offset="0%" style="stop-color:rgb(255,255,0);stop-opacity:1" />
      <stop offset="100%" style="stop-color:rgb(255,0,0);stop-opacity:1" />
    </linearGradient>
    </defs>
     <g
     inkscape:label="Layer 1"
     inkscape:groupmode="layer"
     id="layer1"
     transform="translate(-48.220539,-65.193839)"><path
       d="M 48.220539,99.1928 V 65.193839 H 97.16845 146.11636 V 99.1928 133.19175 H 97.16845 48.220539 Z m 28.379526,24.3011 c 3.354195,-1.19301 5.035605,-2.28691 7.867975,-5.11881 3.93952,-3.93887 6.29654,-8.57299 7.31125,-14.37463 0.60355,-3.4508 0.36416,-8.69501 -0.54928,-12.03249 -2.37392,-8.67382 -8.31367,-15.16859 -15.759311,-17.23188 -1.75681,-0.48683 -2.71318,-0.54642 -8.77076,-0.54642 -6.15167,0 -6.80708,0.0422 -6.88448,0.44365 -0.0471,0.24401 -0.0546,11.56488 -0.0167,25.15749 l 0.0688,24.71384 7.20719,-0.0931 7.2072,-0.0931 2.318076,-0.82449 z M 134.73928,99.30385 V 74.1472 l -7.60677,0.10405 c -6.96493,0.0953 -7.73523,0.1517 -9.1291,0.66878 -7.43764,2.75911 -12.58141,8.67321 -14.94774,17.1863 -0.6541,2.3532 -0.71925,2.99751 -0.71651,7.08647 0.003,3.74849 0.0998,4.88219 0.58411,6.80426 1.96433,7.79644 7.09096,14.30499 13.33371,16.92792 3.12957,1.31491 4.50581,1.49152 11.80157,1.51449 l 6.68073,0.021 z"
       style="fill:url(#grad1);stroke-width:0.264583"
       id="path285" /></g><metadata
     id="metadata324"><rdf:RDF><cc:Work
         rdf:about=""><dc:title>Dolby Logo</dc:title></cc:Work></rdf:RDF></metadata></svg>
