<?xml version="1.0" encoding="UTF-8" standalone="no"?>
<!-- Created with Inkscape (http://www.inkscape.org/) -->

<svg
   width="97.817955mm"
   height="51.575153mm"
   viewBox="0 0 97.817955 51.575153"
   version="1.1"
   id="svg5"
   xml:space="preserve"
   inkscape:version="1.2 (dc2aedaf03, 2022-05-15)"
   sodipodi:docname="dolbylogotxt.svg"
   xmlns:inkscape="http://www.inkscape.org/namespaces/inkscape"
   xmlns:sodipodi="http://sodipodi.sourceforge.net/DTD/sodipodi-0.dtd"
   xmlns="http://www.w3.org/2000/svg"
   xmlns:svg="http://www.w3.org/2000/svg"
   xmlns:rdf="http://www.w3.org/1999/02/22-rdf-syntax-ns#"
   xmlns:cc="http://creativecommons.org/ns#"
   xmlns:dc="http://purl.org/dc/elements/1.1/"><title
     id="title337">Dolby Atmos</title><sodipodi:namedview
     id="namedview7"
     pagecolor="#ffffff"
     bordercolor="#000000"
     borderopacity="0.25"
     inkscape:showpageshadow="2"
     inkscape:pageopacity="0.0"
     inkscape:pagecheckerboard="0"
     inkscape:deskcolor="#d1d1d1"
     inkscape:document-units="mm"
     showgrid="false"
     inkscape:zoom="0.914906"
     inkscape:cx="-62.847986"
     inkscape:cy="-263.96154"
     inkscape:window-width="2560"
     inkscape:window-height="1361"
     inkscape:window-x="-9"
     inkscape:window-y="-9"
     inkscape:window-maximized="1"
     inkscape:current-layer="layer1" />
          <defs
     id="defs2" >
     <linearGradient id="grad1" x1="0%" y1="0%" x2="100%" y2="0%">
      <stop offset="0%" style="stop-color:rgba(0, 84, 105, 0.5);stop-opacity:1" />
      <stop offset="100%" style="stop-color:rgba(0, 131, 175, .5);stop-opacity:1" />
    </linearGradient>
    </defs>
     <g
     inkscape:label="Layer 1"
     inkscape:groupmode="layer"
     id="layer1"
     transform="translate(-51.690843,-199.41836)"><path
       style="fill:url(#grad1);stroke-width:0.264583;"
       d="m 118.17664,250.42138 c -1.70495,-0.65541 -3.29612,-2.37824 -3.96371,-4.29168 -0.71214,-2.04112 -0.68651,-8.92998 0.0415,-11.15762 0.69544,-2.12794 2.42838,-3.89503 4.3915,-4.47801 1.80233,-0.53524 5.31038,-0.53524 7.11271,0 1.87859,0.55788 3.71901,2.37826 4.40919,4.36116 0.72746,2.09006 0.72859,9.253 0.002,11.3408 -0.67642,1.94304 -2.21784,3.56519 -4.0332,4.2444 -1.99208,0.74534 -5.99628,0.73575 -7.95979,-0.019 z m 6.35827,-1.942 c 2.08625,-0.74405 3.00185,-2.27976 3.38033,-5.66977 0.5187,-4.64592 -0.383,-8.40134 -2.3325,-9.71442 -1.65501,-1.11474 -5.07974,-1.12311 -6.75101,-0.0165 -1.88236,1.24636 -2.7782,5.06182 -2.29457,9.77268 0.44,4.28578 2.05053,5.98813 5.66513,5.98813 0.72761,0 1.77729,-0.16205 2.33262,-0.36011 z m 12.02103,2.17551 -1.25677,-0.26193 v -1.19285 c 0,-1.16879 0.0147,-1.18919 0.7276,-1.01177 0.40019,0.0996 2.23895,0.2464 4.08614,0.32624 3.07142,0.13278 3.45947,0.0963 4.53946,-0.4265 1.8324,-0.88705 2.46809,-2.67714 1.64785,-4.64026 -0.52738,-1.2622 -1.55387,-1.68906 -4.72366,-1.9643 -4.26311,-0.37017 -5.7162,-1.37439 -6.31691,-4.36556 -0.55618,-2.7694 0.43374,-4.96923 2.77472,-6.1661 1.14891,-0.5874 1.80787,-0.7173 4.14891,-0.8179 1.62424,-0.0698 3.41448,0.0115 4.29948,0.19521 l 1.51641,0.31481 v 1.15339 1.1534 l -0.8599,-0.24819 c -1.5166,-0.43774 -5.02497,-0.58934 -6.20567,-0.26816 -2.32508,0.63249 -3.39663,2.35169 -2.72819,4.3771 0.42637,1.29191 1.33392,1.69516 4.49244,1.9961 5.07621,0.48367 6.71696,1.90145 6.73727,5.82175 0.0168,3.23246 -1.32732,5.01795 -4.49503,5.9713 -1.44353,0.43443 -6.40583,0.46653 -8.38415,0.0542 z m -84.743677,-0.40312 c 0.0979,-0.25466 1.19078,-3.32052 2.42859,-6.81302 1.2378,-3.4925 2.79736,-7.87304 3.46569,-9.73453 l 1.21514,-3.38454 1.72775,0.0772 1.72774,0.0772 3.6205,10.13255 3.62049,10.13256 -1.46064,-0.0784 -1.46064,-0.0784 -0.8223,-2.38125 -0.82229,-2.38125 -4.40447,-0.0724 -4.40448,-0.0724 -0.82104,2.26906 c -0.45158,1.24799 -0.82105,2.3819 -0.82105,2.51982 0,0.13791 -0.66758,0.25075 -1.48351,0.25075 -1.30431,0 -1.46201,-0.0559 -1.30548,-0.46302 z m 12.31399,-6.88925 c 0,-0.1781 -2.89856,-8.96703 -3.33431,-10.11023 -0.1156,-0.30325 -2.33126,5.60436 -3.69642,9.85573 -0.13664,0.42553 0.14201,0.46302 3.44103,0.46302 1.97434,0 3.5897,-0.0938 3.5897,-0.20852 z m 11.64167,-1.77585 v -9.12813 h -3.04271 -3.04271 v -1.05833 -1.05834 h 7.40834 7.40834 v 1.05834 1.05833 h -3.04271 -3.04272 v 9.12813 9.12812 h -1.32291 -1.32292 z m 12.70001,-1.05834 v -10.18646 h 1.82192 1.82192 l 3.11001,6.15157 c 1.7105,3.38336 3.14098,6.18934 3.17886,6.23551 0.0379,0.0462 1.51714,-2.72203 3.287247,-6.15156 l 3.2184,-6.23552 h 1.70269 1.70269 v 10.18646 10.18646 h -1.36113 -1.36112 l 0.1353,-8.46052 c 0.0759,-4.74687 0.0346,-8.39831 -0.0941,-8.31876 -0.12617,0.078 -0.22939,0.29448 -0.22939,0.48113 0,0.18666 -1.30907,2.98448 -2.90905,6.21738 l -2.909057,5.878 -1.07784,-0.0814 -1.07784,-0.0814 -2.43976,-4.7625 c -1.34187,-2.61938 -2.76098,-5.47688 -3.15358,-6.35 l -0.71382,-1.5875 0.16589,8.53281 0.1659,8.53281 h -1.49208 -1.49208 z m -8.2614,-19.44473 c -3.39856,-0.42346 -5.45794,-1.84579 -6.32409,-4.36777 -0.51124,-1.48856 -0.51124,-11.21144 0,-12.7 1.1686,-3.40263 4.56906,-4.88174 10.46643,-4.55263 3.56158,0.19876 5.2037,0.72855 6.60662,2.13148 1.64895,1.64895 1.87806,2.7351 1.87806,8.90344 0,4.31337 -0.0792,5.3866 -0.48316,6.54507 -0.62128,1.78181 -2.04757,3.03481 -4.09115,3.5941 -1.9088,0.5224 -5.73855,0.73466 -8.05271,0.44631 z m 5.86708,-3.5228 c 0.57311,-0.19824 1.11483,-0.66053 1.45521,-1.24184 0.49684,-0.84852 0.54223,-1.36186 0.54223,-6.13216 0,-4.86612 -0.0361,-5.25491 -0.55296,-5.95313 -0.86208,-1.16459 -1.82539,-1.49666 -4.34183,-1.49666 -2.51634,0 -3.47968,0.33205 -4.34184,1.49654 -0.5157,0.69655 -0.55296,1.08873 -0.55296,5.82083 0,5.94696 0.16065,6.59156 1.83193,7.35062 1.25951,0.57205 4.51111,0.65704 5.96022,0.1558 z m -34.38277,-7.3012 v -10.60939 l 5.62239,0.002 c 8.1784,0.003 10.23253,0.46663 11.82891,2.67037 1.15063,1.58841 1.40567,3.33857 1.28468,8.81595 -0.11979,5.42259 -0.40278,6.47782 -2.14816,8.01027 -1.51531,1.33044 -2.34561,1.46624 -9.7748,1.59871 l -6.81302,0.12137 z m 12.56408,6.5441 c 1.2621,-0.99276 1.45883,-1.89902 1.45883,-6.72011 0,-6.77339 -0.3913,-7.25578 -5.88698,-7.25739 l -3.37343,-9.9e-4 v 7.27604 7.27604 h 3.53619 c 3.22685,0 3.59998,-0.0502 4.26539,-0.57359 z m 32.15051,-6.57592 V 199.6296 l 2.31509,0.0764 2.315107,0.0764 0.0697,8.65857 0.0697,8.65856 4.29588,0.0727 4.29587,0.0727 v 1.71979 1.71979 l -6.68073,0.0707 -6.680717,0.0707 z m 16.139567,0.011 v -10.63882 l 6.01927,0.0913 c 5.67475,0.0861 6.0911,0.12665 7.2742,0.7093 1.86144,0.91671 2.4307,1.87611 2.53762,4.27677 0.0769,1.72754 0.008,2.10422 -0.53152,2.91041 -0.34094,0.50933 -1.13953,1.17597 -1.77463,1.48145 l -1.15473,0.5554 0.98324,0.15956 c 1.26579,0.20541 2.74133,1.3359 3.21109,2.46018 0.47345,1.13314 0.47543,4.10773 0.003,5.20764 -0.51335,1.19636 -1.80325,2.41099 -2.99095,2.81643 -0.66484,0.22695 -3.15409,0.38971 -7.29319,0.47688 l -6.28386,0.13235 z m 10.6797,7.0383 c 1.35331,-0.56544 2.0203,-1.59809 2.0203,-3.12784 0,-0.71755 -0.12864,-1.54501 -0.28588,-1.83881 -0.42686,-0.79759 -1.86728,-1.28312 -3.80666,-1.28312 h -1.72829 v -1.15977 c 0,-1.30121 0.26842,-1.47578 2.27942,-1.48245 2.06361,-0.007 3.1816,-1.72355 2.48904,-3.822 -0.49894,-1.51182 -1.058,-1.73786 -4.29817,-1.73786 h -2.85154 v 7.23194 c 0,3.97757 0.0794,7.31132 0.17639,7.40833 0.33578,0.33579 5.10924,0.18602 6.00539,-0.18842 z m 13.92655,-0.32117 v -3.86099 l -3.43958,-6.45326 c -1.89177,-3.54929 -3.43958,-6.57435 -3.43958,-6.72235 0,-0.16111 0.89502,-0.26908 2.23056,-0.26908 h 2.23056 l 2.46579,4.62856 c 1.35619,2.5457 2.54616,4.6293 2.64439,4.63021 0.0982,7.9e-4 1.32587,-2.08195 2.72809,-4.62856 l 2.54949,-4.63021 h 2.24846 c 1.23666,0 2.19811,0.0893 2.13657,0.19844 -0.0616,0.10914 -1.73545,3.1268 -3.71978,6.70592 l -3.60788,6.50749 v 3.87741 3.8774 h -2.51355 -2.51354 z"
       id="path179"
       sodipodi:nodetypes="sssssscsssssssssssccsssssssssscccsssscssccsscccccccccccsssccssssscccccccccccccccccccccssscccccccsssscccssccccccsssssscssssssssssscccssscccssscccsscccccccccccccccssccscsscssccsssscscsscscsccssscscscscscccccc" /></g><metadata
     id="metadata335"><rdf:RDF><cc:Work
         rdf:about=""><dc:title>Dolby Atmos</dc:title></cc:Work></rdf:RDF></metadata></svg>
